# xmcd
#
# Track frame offsets:
#	150
#	16132
#	31486
#	46639
#	60735
#	82534
#	97950
#	115129
#	133441
#	149224
#	164762
#	181509
#	196014
#	201677
#	223802
#	243422
#	258547
#	276380
#
# Disc length: 3932 seconds
#
# Revision: 0
# Processed by: cddbd v1.5.2PL0 Copyright (c) Steve Scherf et al.
# Submitted via: EasyCDDAExtractor 16.0.6.1
#
DISCID=0c0f5a12
DTITLE=Συλλογικός δίσκος - Εντέχνως Ελληνικά 4
DYEAR=2011
DGENRE=Έντεχνη
TTITLE0=Θηβαίος Χρήστος - Σ' ακολουθώ [Μάνος Λοΐζος]
TTITLE1=Υπόγεια Ρεύματα - Μ' αρέσει να μη λέω πολλά [Υπόγεια Ρεύματα]
TTITLE2=Καζούλης Βασίλης - Η Φανή [Βασίλης Καζούλλης]
TTITLE3=Μουτσάτσου Αναστασία - Πέρασε η μπόρα [Νίκος Ζιώγαλας]
TTITLE4=Μητσιάς Μανώλης-Μικρούτσικος Θάνος - Ερωτικό [Θ. Μικρούτσικος-Ά. Αλκαί
TTITLE4=ος]
TTITLE5=Τσανακλίδου Τάνια - Οι μοίρες [Σ. Κραουνάκης-Λ. Νικολακοπούλου]
TTITLE6=Θωμαΐδης Κώστας-Μικρούτσικος-Μπουλάς-Μεράντζας-Σαμσιάρης - Πρωϊνό τσιγ
TTITLE6=άρο (Στον Μ. Λοΐζο)[Ν. Μαυρουδής-Ά. Αλκαίος]
TTITLE7=Μακεδόνας Κώστας - Τα σμυρναίϊκα τραγούδια [Π. Θαλασσινός-Η. Κατσούλης
TTITLE7=]
TTITLE8=Παπάζογλου Νίκος - Ο μοναχός ο άνθρωπος [Ν. Παπάζογλου-Λ. Ανδρέου]
TTITLE9=Σταυρακάκης Βασίλης - Ο καφενές [Δημήτρης Αποστολάκης]
TTITLE10=Κωνσταντίνου Χρήστος - Αγγελοκαμωμένη [Χρήστος Κωνσταντίνου]
TTITLE11=Λουδοβίκος των Ανωγείων - Πίσω από τα καλάμια [Λουδοβίκος Ανωγείων]
TTITLE12=Ψαραντώνης-Παπακωνσταντίνου Θ.-Θηβαίος Χ. - Το τραγούδι του γάμου [Ν.
TTITLE12=Κυπουργός-Λ. Νικολακοπούλου]
TTITLE13=Γιαννάτου Σαβίνα - Ξανθή Εβραιοπούλα [Σταύρος Παντελίδης]
TTITLE14=Άνευ ερμηνευτού - Τρία παιδιά Βολιώτικα [παραδ., οργανικό, διασκ. Mod
TTITLE14=e Plagal]
TTITLE15=Χωματά Καίτη - Μιά αγάπη για το καλοκαίρι [Γ. Σπανός-Γ. Παπαστεφάνου]
TTITLE16=Λυδάκης Μάνος - Τα χνάρια είναι σβησμένα [Πάνος Κατσιμίχας]
TTITLE17=Κίτρινα Ποδήλατα - Να σε δω να γελάς [Κίτρινα Ποδήλατα]
EXTD=
EXTT0=
EXTT1=
EXTT2=
EXTT3=
EXTT4=
EXTT5=
EXTT6=
EXTT7=
EXTT8=
EXTT9=
EXTT10=
EXTT11=
EXTT12=
EXTT13=
EXTT14=
EXTT15=
EXTT16=
EXTT17=
PLAYORDER=
